<svg width="287" height="50" viewBox="0 0 287 50" fill="none" xmlns="http://www.w3.org/2000/svg">
<g clip-path="url(#clip0_4003_1428)">
<path d="M20.2173 37.5981C18.7089 37.5981 17.3946 37.3121 16.2747 36.7402C15.1777 36.1684 14.3206 35.3449 13.7035 34.2697C13.1092 33.1716 12.8121 31.8792 12.8121 30.3922V19.0687C12.8121 17.5589 13.1092 16.2664 13.7035 15.1912C14.3206 14.116 15.1777 13.2925 16.2747 12.7206C17.3946 12.1488 18.7089 11.8628 20.2173 11.8628C21.7258 11.8628 23.0285 12.1601 24.1256 12.7549C25.2227 13.3268 26.0683 14.1503 26.6626 15.2255C27.2569 16.3007 27.5539 17.5817 27.5539 19.0687H24.4684C24.4684 17.6503 24.0913 16.5638 23.3371 15.8089C22.6057 15.0311 21.5658 14.6422 20.2173 14.6422C18.8688 14.6422 17.806 15.0197 17.029 15.7746C16.2747 16.5295 15.8976 17.616 15.8976 19.0344V30.3922C15.8976 31.8105 16.2747 32.9086 17.029 33.6863C17.806 34.4412 18.8688 34.8187 20.2173 34.8187C21.5658 34.8187 22.6057 34.4412 23.3371 33.6863C24.0913 32.9086 24.4684 31.8105 24.4684 30.3922H27.5539C27.5539 31.8562 27.2569 33.1373 26.6626 34.2353C26.0683 35.3105 25.2227 36.1454 24.1256 36.7402C23.0285 37.3121 21.7258 37.5981 20.2173 37.5981ZM33.5058 37.2549V12.2059H41.2538C42.7395 12.2059 44.0422 12.5148 45.1621 13.1324C46.2821 13.7272 47.1506 14.5621 47.7677 15.6373C48.3848 16.7125 48.6933 17.9706 48.6933 19.4118C48.6933 21.1047 48.2476 22.5572 47.3563 23.7697C46.4878 24.9821 45.2993 25.817 43.7908 26.2746L49.0361 37.2549H45.4021L40.6025 26.6177H36.5913V37.2549H33.5058ZM36.5913 23.8383H41.2538C42.5338 23.8383 43.5623 23.438 44.3393 22.6373C45.1165 21.8138 45.505 20.7386 45.505 19.4118C45.505 18.0621 45.1165 16.987 44.3393 16.1863C43.5623 15.3856 42.5338 14.9853 41.2538 14.9853H36.5913V23.8383ZM59.6506 37.2549V27.8873L52.1083 12.2059H55.2967L60.2677 22.5C60.542 23.0719 60.7591 23.5638 60.9191 23.9755C61.0791 24.3645 61.1819 24.6503 61.2277 24.8334C61.2733 24.6503 61.3762 24.3645 61.5362 23.9755C61.719 23.5638 61.9476 23.0719 62.2219 22.5L67.0901 12.2059H70.2784L62.7361 27.8873V37.2549H59.6506ZM74.619 37.2549V12.2059H82.6756C84.2298 12.2059 85.5782 12.5148 86.721 13.1324C87.8638 13.7272 88.7437 14.5736 89.3608 15.6716C90.0007 16.7697 90.3207 18.0736 90.3207 19.5834C90.3207 21.0703 90.0007 22.3743 89.3608 23.4951C88.7437 24.5932 87.8638 25.451 86.721 26.0687C85.5782 26.6635 84.2298 26.9608 82.6756 26.9608H77.7045V37.2549H74.619ZM77.7045 24.1814H82.6756C84.0241 24.1814 85.0982 23.7697 85.8982 22.9461C86.721 22.0998 87.1324 20.9788 87.1324 19.5834C87.1324 18.165 86.721 17.0442 85.8982 16.2206C85.0982 15.3971 84.0241 14.9853 82.6756 14.9853H77.7045V24.1814ZM100.763 37.2549V14.9853H93.9071V12.1716H110.706V14.9853H103.849V37.2549H100.763ZM122.863 37.5981C121.355 37.5981 120.052 37.3121 118.955 36.7402C117.881 36.1684 117.046 35.3449 116.452 34.2697C115.88 33.1716 115.595 31.8792 115.595 30.3922V19.0687C115.595 17.5589 115.88 16.2664 116.452 15.1912C117.046 14.116 117.881 13.2925 118.955 12.7206C120.052 12.1488 121.355 11.8628 122.863 11.8628C124.372 11.8628 125.663 12.1488 126.737 12.7206C127.834 13.2925 128.668 14.116 129.24 15.1912C129.834 16.2664 130.131 17.5474 130.131 19.0344V30.3922C130.131 31.8792 129.834 33.1716 129.24 34.2697C128.668 35.3449 127.834 36.1684 126.737 36.7402C125.663 37.3121 124.372 37.5981 122.863 37.5981ZM122.863 34.8187C124.211 34.8187 125.24 34.4412 125.949 33.6863C126.68 32.9086 127.046 31.8105 127.046 30.3922V19.0687C127.046 17.6503 126.68 16.5638 125.949 15.8089C125.24 15.0311 124.211 14.6422 122.863 14.6422C121.537 14.6422 120.509 15.0311 119.778 15.8089C119.046 16.5638 118.681 17.6503 118.681 19.0687V30.3922C118.681 31.8105 119.046 32.9086 119.778 33.6863C120.509 34.4412 121.537 34.8187 122.863 34.8187ZM164.113 37.5981C162.445 37.5981 160.982 37.2893 159.725 36.6716C158.468 36.0311 157.486 35.1503 156.776 34.0295C156.091 32.8856 155.748 31.5589 155.748 30.0491V19.4118C155.748 17.8792 156.091 16.5523 156.776 15.4314C157.486 14.3105 158.468 13.4412 159.725 12.8236C160.982 12.1831 162.445 11.8628 164.113 11.8628C165.805 11.8628 167.267 12.1831 168.501 12.8236C169.759 13.4412 170.73 14.3105 171.415 15.4314C172.125 16.5523 172.478 17.8792 172.478 19.4118H167.336C167.336 18.4052 167.051 17.639 166.479 17.1128C165.93 16.5866 165.142 16.3236 164.113 16.3236C163.085 16.3236 162.285 16.5866 161.713 17.1128C161.165 17.639 160.89 18.4052 160.89 19.4118V30.0491C160.89 31.0327 161.165 31.7991 161.713 32.3481C162.285 32.8743 163.085 33.1373 164.113 33.1373C165.142 33.1373 165.93 32.8743 166.479 32.3481C167.051 31.7991 167.336 31.0327 167.336 30.0491H172.478C172.478 31.5589 172.125 32.8856 171.415 34.0295C170.73 35.1503 169.759 36.0311 168.501 36.6716C167.267 37.2893 165.805 37.5981 164.113 37.5981ZM175.105 37.2549L181.242 12.2059H187.756L193.961 37.2549H188.716L187.516 31.5932H181.55L180.351 37.2549H175.105ZM182.408 27.4755H186.624L185.425 21.4363C185.264 20.567 185.092 19.7092 184.91 18.8628C184.75 17.9935 184.624 17.3187 184.533 16.8383C184.441 17.3187 184.316 17.9821 184.156 18.8285C184.019 19.6749 183.858 20.5327 183.676 21.402L182.408 27.4755ZM196.861 37.2549V12.2059H202.861L209.341 31.5932C209.272 30.7468 209.192 29.7746 209.101 28.6765C209.009 27.5556 208.929 26.4461 208.861 25.3481C208.815 24.2272 208.792 23.2778 208.792 22.5V12.2059H213.317V37.2549H207.318L200.907 17.8677C200.975 18.5998 201.044 19.469 201.113 20.4755C201.181 21.4821 201.238 22.5 201.284 23.5295C201.353 24.5589 201.387 25.4739 201.387 26.2746V37.2549H196.861ZM222.423 37.2549L216.218 12.2059H221.532L224.994 28.0246C225.109 28.5736 225.246 29.2713 225.406 30.1177C225.589 30.9641 225.726 31.6847 225.817 32.2795C225.909 31.6847 226.023 30.9641 226.16 30.1177C226.297 29.2713 226.423 28.5621 226.537 27.9902L229.897 12.2059H235.074L228.937 37.2549H222.423ZM236.775 37.2549L242.912 12.2059H249.426L255.631 37.2549H250.385L249.186 31.5932H243.22L242.02 37.2549H236.775ZM244.077 27.4755H248.294L247.094 21.4363C246.934 20.567 246.762 19.7092 246.58 18.8628C246.419 17.9935 246.294 17.3187 246.203 16.8383C246.111 17.3187 245.985 17.9821 245.826 18.8285C245.689 19.6749 245.528 20.5327 245.346 21.402L244.077 27.4755ZM266.759 37.5981C264.999 37.5981 263.468 37.3007 262.165 36.7059C260.862 36.1111 259.856 35.2762 259.148 34.201C258.44 33.1258 258.085 31.8562 258.085 30.3922H263.228C263.228 31.2386 263.548 31.9135 264.188 32.4167C264.851 32.8971 265.742 33.1373 266.862 33.1373C267.937 33.1373 268.77 32.8971 269.365 32.4167C269.982 31.9363 270.29 31.2729 270.29 30.4265C270.29 29.6945 270.062 29.0654 269.605 28.5393C269.147 28.0131 268.508 27.6586 267.685 27.4755L265.148 26.8922C263.022 26.389 261.365 25.4625 260.177 24.1128C259.011 22.7402 258.428 21.0703 258.428 19.103C258.428 17.639 258.759 16.3694 259.423 15.2942C260.108 14.1961 261.068 13.3498 262.302 12.7549C263.537 12.1601 264.999 11.8628 266.691 11.8628C269.25 11.8628 271.273 12.5033 272.759 13.7844C274.267 15.0425 275.021 16.7468 275.021 18.8971H269.879C269.879 18.0964 269.593 17.4674 269.022 17.0099C268.473 16.5523 267.673 16.3236 266.622 16.3236C265.64 16.3236 264.885 16.5523 264.359 17.0099C263.833 17.4445 263.571 18.0736 263.571 18.8971C263.571 19.6292 263.776 20.2582 264.188 20.7844C264.622 21.2876 265.228 21.6307 266.005 21.8138L268.679 22.4314C270.896 22.9347 272.576 23.8498 273.719 25.1765C274.862 26.4804 275.433 28.1503 275.433 30.1863C275.433 31.6503 275.067 32.9429 274.336 34.0638C273.628 35.1847 272.622 36.054 271.319 36.6716C270.039 37.2893 268.519 37.5981 266.759 37.5981Z" fill="white"/>
<path d="M286.02 0.980469H0.979492V49.0197H286.02V0.980469Z" stroke="white" stroke-width="2"/>
<path d="M143.99 0.980469V50.0001" stroke="white" stroke-width="2"/>
</g>
<defs>
<clipPath id="clip0_4003_1428">
<rect width="287" height="50" fill="white"/>
</clipPath>
</defs>
</svg>
