<svg width="262" height="50" viewBox="0 0 262 50" fill="none" xmlns="http://www.w3.org/2000/svg">
<path d="M85.2111 15.2162H94.5866L84.6179 37.9757H75.7976L69.1259 25.6592L62.4145 37.9748H53.5782L43.6102 15.2162H53.1832L58.4837 28.5605L65.5908 15.2162H72.5005L79.5149 28.244L85.2111 15.2162ZM97.5276 15.2558H106.679V37.9748H97.5276V15.2558ZM97.5276 9.05835H106.679V13.4887H97.5276V9.05835ZM109.771 35.5352V10.509H118.922V37.9748H109.771V35.5352ZM147.172 10.509H156.27V37.9748H147.173V35.536C144.684 37.2955 141.164 38.1723 136.611 38.1723C135.617 38.1756 134.623 38.1404 133.632 38.0668C132.659 37.9944 131.69 37.8667 130.731 37.6845C129.682 37.4837 128.753 37.217 127.935 36.8803C127.125 36.5377 126.33 36.0702 125.549 35.4693C124.787 34.8874 124.131 34.1782 123.61 33.3731C123.1 32.5757 122.687 31.5799 122.371 30.3934C122.054 29.2001 121.896 27.8676 121.896 26.3976C121.896 24.5714 122.295 22.9292 123.096 21.4795C123.894 20.0229 124.971 18.855 126.327 17.9858C127.688 17.1081 129.227 16.4398 130.942 15.9816C132.655 15.5259 134.479 15.2955 136.414 15.2955C140.396 15.2955 143.982 16.0929 147.173 17.682L147.172 10.509ZM147.172 28.4415V25.3427C146.335 23.0946 143.236 21.9672 137.876 21.9672H136.901C136.707 21.9672 136.406 21.9908 136.004 22.033C135.661 22.0581 135.321 22.1157 134.988 22.2052C134.715 22.2837 134.386 22.3959 134 22.5343C133.62 22.6761 133.308 22.8634 133.063 23.1014C132.816 23.3385 132.576 23.6162 132.338 23.9318C132.101 24.2423 131.92 24.6313 131.798 25.1056C131.678 25.62 131.62 26.147 131.626 26.6752C131.626 29.7866 133.888 31.3419 138.417 31.3419C140.955 31.3419 142.861 31.1546 144.127 30.7757C145.398 30.3993 146.414 29.6221 147.172 28.4415ZM176.408 17.2204C175.96 17.2204 175.659 17.2305 175.512 17.2474C175.37 17.2567 175.123 17.26 174.773 17.26C174.42 17.26 174.193 17.2735 174.087 17.2997C173.899 17.3432 173.71 17.3825 173.52 17.4178C173.247 17.471 173.072 17.5301 172.993 17.59C172.87 17.6806 172.742 17.7643 172.61 17.8406C172.457 17.9289 172.34 18.0689 172.281 18.2356C172.22 18.4108 172.15 18.5826 172.07 18.7503C171.977 18.9535 171.923 19.1726 171.912 19.3959C171.901 19.6432 171.898 19.9233 171.898 20.2398H182.882V26.5563H171.661V37.9748H162.51V26.5563H159.134V20.2398H162.669C162.669 16.5748 163.4 14.0263 164.871 12.5925C166.338 11.152 168.707 10.4297 171.977 10.4297C173.382 10.4297 174.713 10.4567 175.972 10.509C176.998 10.5467 178.023 10.6128 179.045 10.7073C179.754 10.776 180.462 10.8548 181.168 10.9436C181.781 11.017 182.223 11.0761 182.486 11.1292L182.882 11.2077V18.1571C181.307 17.5335 179.15 17.2204 176.408 17.2204ZM185.819 15.2558H194.97V37.9748H185.819V15.2558ZM185.819 9.05835H194.97V13.4887H185.819V9.05835ZM216.746 15.2558C220.455 15.2558 223.448 16.0043 225.725 17.4972C225.911 17.5968 226.015 17.6558 226.042 17.6828L222.627 24.6702C222.292 24.4921 221.949 24.3293 221.599 24.1824C221.157 23.9917 220.323 23.7208 219.093 23.3782C217.87 23.0356 216.71 22.8246 215.612 22.7453C214.637 22.693 213.717 22.7453 212.857 22.9039C211.993 23.0617 211.314 23.2297 210.813 23.4044C210.318 23.5731 209.765 23.8727 209.151 24.3014C208.535 24.7335 208.153 25.0229 208.004 25.1714C207.704 25.4649 207.401 25.7549 207.095 26.0415V37.9748H197.944V15.2162H207.095V18.3942C208.762 16.3039 211.98 15.2558 216.746 15.2558ZM245.465 14.7022C248.162 14.7022 250.506 14.9394 252.494 15.4145C254.478 15.882 256.202 16.6508 257.663 17.7216C259.129 18.7959 260.2 20.2533 260.88 22.0997C261.566 23.9453 261.803 26.1672 261.592 28.7579H238.292C238.415 29.4634 239.051 30.0373 240.205 30.4854C241.355 30.9267 243.082 31.1444 245.386 31.1444C247.397 31.1444 249.408 31.0195 251.412 30.7622C253.416 30.4989 254.926 30.2347 255.948 29.9714L257.438 29.5748L261.367 35.9309C261.228 36.016 261.083 36.091 260.933 36.1554C260.722 36.244 260.188 36.4061 259.337 36.6432C258.493 36.8803 257.531 37.0913 256.449 37.2761C255.375 37.4533 253.885 37.6153 251.979 37.7638C250.07 37.9056 247.977 37.9748 245.703 37.9748C243.039 37.9748 240.718 37.7976 238.741 37.4347C236.763 37.0651 235.148 36.5571 233.902 35.9048C232.663 35.2457 231.664 34.4212 230.908 33.4255C230.15 32.4339 229.63 31.3748 229.34 30.2482C229.049 29.1242 228.904 27.8153 228.904 26.3191C228.904 22.6533 230.296 19.8018 233.085 17.7613C235.869 15.7242 239.996 14.7022 245.465 14.7022ZM245.545 21.7301C244.102 21.7301 242.871 21.8356 241.853 22.0465C240.831 22.2575 240.086 22.5276 239.611 22.8508C239.143 23.1773 238.807 23.4972 238.596 23.8128C238.392 24.1233 238.292 24.433 238.292 24.7495H252.335C252.335 23.8887 251.815 23.174 250.779 22.6001C249.751 22.0204 248.004 21.7309 245.545 21.7309V21.7301Z" fill="white"/>
<path d="M29.9951 44.3652C28.9959 34.3129 0.834694 28.7188 13.6676 5.604C10.7469 16.4361 40.0752 34.3753 29.9951 44.3669" fill="#F6B687"/>
<mask id="mask0_4003_1438" style="mask-type:luminance" maskUnits="userSpaceOnUse" x="16" y="0" width="19" height="39">
<path d="M16.7892 0H34.0365V38.6532H16.7892V0Z" fill="white"/>
</mask>
<g mask="url(#mask0_4003_1438)">
<path d="M32.4307 38.5975C34.0037 30.8211 12.3362 14.243 17.6206 0C16.8881 13.4684 40.2602 19.6625 32.4307 38.5975Z" fill="#FBDC6A"/>
</g>
<mask id="mask1_4003_1438" style="mask-type:luminance" maskUnits="userSpaceOnUse" x="0" y="13" width="30" height="37">
<path d="M0 13.2642H29.6388V50.0001H0V13.2642Z" fill="white"/>
</mask>
<g mask="url(#mask1_4003_1438)">
<path d="M24.5991 49.3897C43.3645 41.1062 2.94422 33.0134 8.74254 13.356C-10.9174 31.2235 6.18473 54.7923 24.5991 49.3897Z" fill="#F6A224"/>
</g>
</svg>
