<svg width="171" height="50" viewBox="0 0 171 50" fill="none" xmlns="http://www.w3.org/2000/svg">
<path d="M170.039 38.7963V38.9963H160.463V38.7963C160.563 38.1463 161.71 34.5463 161.71 31.1963V10.3462C161.71 6.99623 160.563 3.54623 160.314 2.89623L160.264 2.69625L161.561 2.49625L168.793 1.64624V31.1963C168.793 34.5463 169.94 38.1463 170.039 38.7963Z" fill="#19D6D3"/>
<path d="M140.914 39.4463C135.627 39.4463 132.884 35.4463 132.884 31.5963C132.884 26.1963 138.271 22.9963 144.405 23.5963C145.652 23.6963 147.098 23.9463 148.246 24.3463V21.3463C148.246 17.7464 147.298 15.6964 145.502 15.6964C142.51 15.6964 135.627 21.2463 134.979 22.1463H134.729V15.3964C139.019 14.1464 143.208 13.5464 145.901 13.5464C152.435 13.5464 155.278 16.9464 155.278 21.7963V32.3463C155.278 35.1463 156.176 36.3463 158.47 35.3463L158.57 35.4963C158.121 37.6963 156.375 39.3463 153.582 39.3463C150.939 39.3463 149.143 37.9463 148.495 35.4463C147.198 37.3963 144.704 39.4463 140.914 39.4463ZM140.216 30.5963C140.216 33.4963 142.061 35.5963 144.754 35.5963C146.051 35.5963 147.248 34.9963 148.246 33.9463C148.246 33.7463 148.246 33.5463 148.246 33.3463V25.8463C147.946 25.8463 147.597 25.8463 147.248 25.7963C142.56 25.1963 140.216 27.5963 140.216 30.5963Z" fill="#19D6D3"/>
<path d="M119.805 39.4464C117.61 39.4464 115.067 38.6464 113.122 36.3964V41.1964C113.122 44.5464 114.269 48.1464 114.368 48.7964V48.9964H104.792V48.7964C104.892 48.1464 106.039 44.5464 106.039 41.1964V21.9464C106.039 18.5964 104.892 15.1463 104.643 14.4963L104.593 14.2963L105.89 14.0963L113.122 13.2463V17.2963C114.767 14.7963 117.511 13.5463 120.403 13.5463C125.69 13.5463 130.179 17.7963 130.179 26.0964C130.179 35.1964 124.842 39.4464 119.805 39.4464ZM117.211 17.5963C115.715 17.5963 114.368 18.2464 113.122 19.3964V34.4964C114.269 35.3464 115.516 35.8964 116.812 35.8964C120.902 35.8964 122.548 31.3964 122.548 26.2464C122.548 21.6464 121.052 17.5963 117.211 17.5963Z" fill="#19D6D3"/>
<path d="M90.3636 39.4963C84.1791 39.4963 77.8949 35.1963 77.8949 26.4463C77.8949 18.3963 83.1318 13.5464 90.4634 13.5464C98.5431 13.5464 101.835 19.5463 101.835 25.8463H85.6255C86.1243 31.0963 88.4684 34.8463 93.5556 34.8463C96.1491 34.8463 98.4933 33.9963 101.336 31.8463L101.536 31.9463C100.189 35.4963 96.3486 39.4963 90.3636 39.4963ZM85.5756 24.0463C85.5756 24.2463 85.5756 24.4463 85.5756 24.6463L94.8025 23.1963C94.7028 19.2963 93.7053 15.4964 90.3636 15.4964C86.7228 15.4964 85.5258 19.8463 85.5756 24.0463Z" fill="white"/>
<path d="M65.1973 39.4463C62.8532 39.4463 59.4118 38.8963 55.3719 37.2963V30.4463H55.5714C58.4642 33.4463 61.9056 37.3463 65.6462 37.3463C67.5913 37.3463 69.5364 36.2963 69.5364 34.1463C69.5364 31.7463 67.0926 30.8963 63.0028 29.4463C57.8158 27.5963 54.7734 25.1463 54.7734 21.0963C54.7734 16.3464 58.9629 13.5464 65.0976 13.5464C67.3419 13.5464 70.6836 13.9964 74.0751 15.3964V21.9963H73.8257C71.0826 18.7963 67.8906 15.5464 64.3993 15.5464C62.5041 15.5464 60.6587 16.4964 60.6587 18.4463C60.6587 20.7963 63.3519 21.6463 67.2921 22.9963C73.1274 24.9963 75.1224 27.6463 75.1224 31.2463C75.1224 36.9963 70.2846 39.4463 65.1973 39.4463Z" fill="white"/>
<path d="M46.5011 9.89639C44.1071 9.89639 42.0123 7.94639 42.0123 5.49639C42.0123 2.99639 44.0073 1.04639 46.5011 1.04639C48.945 1.04639 50.9898 2.99639 50.9898 5.49639C50.9898 7.94639 48.8951 9.89639 46.5011 9.89639ZM51.5883 38.7963V38.9963H42.0123V38.7963C42.162 38.1463 43.3091 34.5463 43.3091 31.1963V21.6463C43.3091 18.2963 42.162 14.6964 42.0123 13.9964V13.8464H50.2916V31.1963C50.2916 34.5463 51.4387 38.1463 51.5883 38.7963Z" fill="white"/>
<path d="M4.16618 21.1462C3.01906 18.0462 1.07393 14.6962 0.674927 13.9962V13.8462H11.4978V13.9962C11.3981 14.7462 10.6499 17.9962 11.6474 20.9962L15.2384 31.7962L19.1287 20.6462C17.9815 17.6462 16.2359 14.6962 15.8369 13.9962V13.8462H26.6598V13.9962C26.56 14.7462 25.8119 17.9962 26.8094 20.9962L30.4004 31.7962L34.0912 21.1462C35.1884 18.0462 34.1909 14.7962 33.9415 14.0462V13.8462H39.727V14.0462C39.0288 15.1462 37.6323 17.5462 36.5849 20.4462L30.2009 38.9962H25.762L20.2259 23.7462L14.6898 38.9962H10.6001L4.16618 21.1462Z" fill="white"/>
</svg>
