<svg width="312" height="40" viewBox="0 0 312 40" fill="none" xmlns="http://www.w3.org/2000/svg">
<mask id="mask0_4003_1432" style="mask-type:luminance" maskUnits="userSpaceOnUse" x="0" y="0" width="312" height="39">
<path d="M312 0H0V39H312V0Z" fill="white"/>
</mask>
<g mask="url(#mask0_4003_1432)">
<path fill-rule="evenodd" clip-rule="evenodd" d="M28.9782 11.9008C28.752 8.8424 27.6376 6.57156 25.6346 5.08966C23.6298 3.60916 20.3762 2.86776 15.8738 2.86776C13.7564 2.86776 11.9782 3.07134 10.5372 3.47712C9.09568 3.88338 7.93694 4.4212 7.05874 5.08966C6.18052 5.75998 5.54936 6.53602 5.16702 7.42006C4.78426 8.30504 4.59288 9.22464 4.59288 10.1803C4.59288 12.1875 5.2349 13.6574 6.51806 14.589C7.80124 15.5211 9.47848 16.1304 11.5507 16.4171L22.5612 17.9946C24.1822 18.2342 25.6564 18.5799 26.9852 19.0337C28.3132 19.4885 29.4614 20.1094 30.4302 20.8978C31.3984 21.6864 32.1414 22.6664 32.6594 23.8372C33.1766 25.0088 33.4362 26.4068 33.4362 28.0308C33.4362 30.5168 32.8504 32.488 31.6802 33.9454C30.5084 35.4038 29.0678 36.5034 27.3566 37.2434C25.6446 37.9834 23.8442 38.4622 21.953 38.6774C20.0618 38.8924 18.3732 39 16.8869 39C14.4993 39 12.304 38.7724 10.301 38.3186C8.29664 37.8634 6.55154 37.1358 5.06568 36.1322C3.57982 35.1286 2.39798 33.8264 1.51978 32.2248C0.641568 30.6248 0.135277 28.6766 0 26.3818H3.107C3.19704 27.3384 3.37712 28.3784 3.64768 29.5006C3.91736 30.6248 4.5363 31.6764 5.50498 32.6556C6.4728 33.6356 7.90256 34.4602 9.79426 35.1286C11.686 35.799 14.3201 36.1322 17.6973 36.1322C22.2454 36.1322 25.4876 35.4398 27.4246 34.053C29.3602 32.6676 30.3292 30.6598 30.3292 28.0308C30.3292 25.8804 29.676 24.303 28.3702 23.2994C27.0634 22.2958 25.398 21.6508 23.3714 21.3642L11.2131 19.6431C10.1318 19.5 9.0174 19.2378 7.86908 18.8546C6.72074 18.4728 5.67376 17.935 4.72814 17.2416C3.7825 16.5492 3.00564 15.6531 2.39798 14.5534C1.78989 13.4547 1.48629 12.0689 1.48629 10.3949C1.48629 9.3442 1.68811 8.22102 2.0935 7.02536C2.49934 5.83154 3.24228 4.70788 4.32276 3.65578C5.40366 2.60554 6.8895 1.73302 8.78076 1.03917C10.6725 0.346696 13.0809 0 16.0087 0C19.2057 0 21.8286 0.346696 23.8782 1.03917C25.927 1.73302 27.5364 2.65262 28.7076 3.79936C29.8782 4.94656 30.7108 6.22578 31.207 7.63474C31.702 9.04506 31.9948 10.4669 32.0852 11.9008H28.9782ZM71.465 17.3492C71.1496 14.8646 70.5194 12.7013 69.5738 10.8607C68.6282 9.02198 67.4458 7.51608 66.0274 6.34488C64.609 5.17414 63.01 4.30164 61.2314 3.7278C59.452 3.15444 57.572 2.86776 55.5912 2.86776C51.0878 2.86776 47.4854 4.17006 44.7834 6.77468C42.0814 9.38022 40.3928 12.9044 39.7172 17.3492H71.465ZM39.7172 20.217C39.7616 22.5108 40.1562 24.6256 40.8992 26.5614C41.6424 28.497 42.7116 30.182 44.1078 31.616C45.5028 33.0494 47.2148 34.1606 49.2414 34.95C51.268 35.7384 53.5868 36.1322 56.1992 36.1322C58.9012 36.1322 61.13 35.7384 62.8864 34.95C64.6424 34.1606 66.0614 33.2174 67.1418 32.1172C68.2228 31.0186 69.0434 29.8714 69.6072 28.6766C70.1696 27.4818 70.609 26.4782 70.9248 25.6654H74.0318C72.5902 30.3016 70.361 33.6832 67.3444 35.8096C64.327 37.9354 60.499 39 55.8612 39C52.889 39 50.2214 38.5452 47.857 37.6376C45.4924 36.73 43.4768 35.4152 41.8108 33.6952C40.1448 31.9738 38.8616 29.895 37.9608 27.4574C37.0596 25.02 36.6102 22.2722 36.6102 19.2133C36.6102 17.3021 36.9244 15.2228 37.556 12.976C38.1858 10.7301 39.2444 8.65128 40.7308 6.73914C42.2166 4.82792 44.1974 3.226 46.6746 1.93569C49.151 0.645386 52.2358 0 55.9286 0C58.9452 0 61.625 0.501808 63.967 1.50543C66.308 2.50952 68.2906 3.90692 69.9116 5.69904C71.5324 7.49162 72.7704 9.63136 73.6268 12.1159C74.481 14.6015 74.9322 17.3021 74.9778 20.217H39.7172ZM112.737 17.3492C112.421 14.8646 111.791 12.7013 110.846 10.8607C109.9 9.02198 108.717 7.51608 107.299 6.34488C105.881 5.17414 104.281 4.30164 102.503 3.7278C100.724 3.15444 98.8438 2.86776 96.863 2.86776C92.3592 2.86776 88.7572 4.17006 86.0552 6.77468C83.3532 9.38022 81.6646 12.9044 80.9892 17.3492H112.737ZM80.9892 20.217C81.0334 22.5108 81.428 24.6256 82.171 26.5614C82.9144 28.497 83.9834 30.182 85.3798 31.616C86.7748 33.0494 88.4868 34.1606 90.5132 34.95C92.5398 35.7384 94.8586 36.1322 97.471 36.1322C100.173 36.1322 102.402 35.7384 104.158 34.95C105.914 34.1606 107.333 33.2174 108.414 32.1172C109.495 31.0186 110.315 29.8714 110.879 28.6766C111.442 27.4818 111.881 26.4782 112.196 25.6654H115.304C113.862 30.3016 111.632 33.6832 108.616 35.8096C105.599 37.9354 101.771 39 97.1336 39C94.161 39 91.4928 38.5452 89.1288 37.6376C86.7646 36.73 84.7482 35.4152 83.0826 33.6952C81.4168 31.9738 80.1336 29.895 79.2328 27.4574C78.3314 25.02 77.8822 22.2722 77.8822 19.2133C77.8822 17.3021 78.1962 15.2228 78.8278 12.976C79.4576 10.7301 80.5164 8.65128 82.0022 6.73914C83.488 4.82792 85.4694 3.226 87.946 1.93569C90.4228 0.645386 93.508 0 97.2006 0C100.217 0 102.897 0.501808 105.239 1.50543C107.58 2.50952 109.562 3.90692 111.183 5.69904C112.804 7.49162 114.043 9.63136 114.898 12.1159C115.753 14.6015 116.204 17.3021 116.249 20.217H80.9892ZM121.181 1.14673H124.287V8.45924H124.422C124.962 7.36052 125.66 6.30888 126.516 5.30526C127.371 4.30164 128.397 3.40512 129.589 2.61708C130.783 1.82813 132.157 1.19521 133.71 0.716942C135.264 0.24006 137.031 0 139.013 0C141.669 0 143.899 0.275602 145.7 0.8245C147.501 1.37432 148.987 2.09126 150.158 2.97532C151.328 3.8603 152.241 4.85146 152.894 5.95018C153.546 7.05028 154.019 8.16146 154.313 9.28374C154.605 10.4074 154.774 11.495 154.819 12.5457C154.863 13.5978 154.887 14.4814 154.887 15.1984V37.8528H151.779V15.3419C151.779 13.4778 151.588 11.7822 151.205 10.2518C150.822 8.72282 150.147 7.40852 149.179 6.30888C148.21 5.2097 146.904 4.36212 145.261 3.76382C143.616 3.16644 141.512 2.86776 138.945 2.86776C136.378 2.86776 134.172 3.25092 132.326 4.01448C130.478 4.77944 128.959 5.79552 127.766 7.06136C126.572 8.32858 125.695 9.77446 125.132 11.399C124.568 13.0245 124.287 14.6966 124.287 16.4171V37.8528H121.181V1.14673ZM189.065 11.9008C188.84 8.8424 187.725 6.57156 185.722 5.08966C183.718 3.60916 180.463 2.86776 175.961 2.86776C173.844 2.86776 172.066 3.07134 170.625 3.47712C169.183 3.88338 168.024 4.4212 167.146 5.08966C166.268 5.75998 165.636 6.53602 165.255 7.42006C164.871 8.30504 164.681 9.22464 164.681 10.1803C164.681 12.1875 165.322 13.6574 166.606 14.589C167.889 15.5211 169.566 16.1304 171.638 16.4171L182.648 17.9946C184.27 18.2342 185.744 18.5799 187.073 19.0337C188.401 19.4885 189.549 20.1094 190.518 20.8978C191.485 21.6864 192.228 22.6664 192.747 23.8372C193.264 25.0088 193.524 26.4068 193.524 28.0308C193.524 30.5168 192.938 32.488 191.767 33.9454C190.596 35.4038 189.155 36.5034 187.445 37.2434C185.733 37.9834 183.932 38.4622 182.04 38.6774C180.149 38.8924 178.46 39 176.974 39C174.586 39 172.391 38.7724 170.388 38.3186C168.384 37.8634 166.639 37.1358 165.154 36.1322C163.667 35.1286 162.485 33.8264 161.607 32.2248C160.729 30.6248 160.223 28.6766 160.087 26.3818H163.194C163.284 27.3384 163.465 28.3784 163.735 29.5006C164.005 30.6248 164.624 31.6764 165.592 32.6556C166.56 33.6356 167.99 34.4602 169.882 35.1286C171.773 35.799 174.408 36.1322 177.785 36.1322C182.333 36.1322 185.575 35.4398 187.512 34.053C189.448 32.6676 190.416 30.6598 190.416 28.0308C190.416 25.8804 189.763 24.303 188.458 23.2994C187.151 22.2958 185.486 21.6508 183.459 21.3642L171.3 19.6431C170.219 19.5 169.105 19.2378 167.957 18.8546C166.808 18.4728 165.761 17.935 164.816 17.2416C163.87 16.5492 163.093 15.6531 162.485 14.5534C161.877 13.4547 161.573 12.0689 161.573 10.3949C161.573 9.3442 161.776 8.22102 162.181 7.02536C162.586 5.83154 163.33 4.70788 164.41 3.65578C165.491 2.60554 166.977 1.73302 168.869 1.03917C170.759 0.346696 173.168 0 176.096 0C179.293 0 181.916 0.346696 183.965 1.03917C186.014 1.73302 187.624 2.65262 188.795 3.79936C189.966 4.94656 190.799 6.22578 191.294 7.63474C191.79 9.04506 192.082 10.4669 192.173 11.9008H189.065ZM201.764 4.01448V19.2133H221.286C222.276 19.2133 223.268 19.0947 224.258 18.8546C225.248 18.6164 226.116 18.2092 226.86 17.6359C227.602 17.0625 228.21 16.286 228.682 15.3059C229.156 14.3268 229.392 13.096 229.392 11.6137C229.392 9.7029 229.088 8.23302 228.48 7.20494C227.872 6.17776 227.118 5.42528 226.216 4.94656C225.316 4.46968 224.37 4.19408 223.38 4.12206C222.388 4.05096 221.534 4.01448 220.812 4.01448H201.764ZM201.764 22.081V37.8528H198.792V1.14673H221.69C222.908 1.14673 224.146 1.2903 225.406 1.57745C226.666 1.86367 227.804 2.37794 228.818 3.11844C229.83 3.8603 230.664 4.91102 231.316 6.27288C231.968 7.63474 232.296 9.3913 232.296 11.5421C232.296 14.6499 231.418 17.1825 229.662 19.1413C227.906 21.102 225.136 22.081 221.354 22.081H201.764ZM239.05 1.14673H242.158V37.8524H239.05V1.14673ZM249.992 1.14673H253.098V9.82156H253.234C254.404 6.52354 256.24 4.17006 258.74 2.7602C261.238 1.35078 264.178 0.645388 267.554 0.645388C268.05 0.645388 268.476 0.68093 268.838 0.752486C269.198 0.824502 269.626 0.932068 270.122 1.07564V4.3732C269.76 4.22962 269.322 4.12206 268.804 4.05096C268.286 3.97894 267.532 3.9434 266.542 3.9434C264.29 3.9434 262.32 4.3261 260.63 5.08966C258.942 5.85508 257.546 6.88224 256.444 8.17302C255.338 9.46332 254.506 10.9577 253.944 12.6533C253.38 14.3503 253.098 16.1304 253.098 17.9946V37.8528H249.992V1.14673ZM308.488 17.3492C308.172 14.8646 307.542 12.7013 306.596 10.8607C305.65 9.02198 304.468 7.51608 303.05 6.34488C301.632 5.17414 300.032 4.30164 298.254 3.7278C296.474 3.15444 294.594 2.86776 292.614 2.86776C288.11 2.86776 284.508 4.17006 281.806 6.77468C279.104 9.38022 277.414 12.9044 276.74 17.3492H308.488ZM276.74 20.217C276.784 22.5108 277.178 24.6256 277.922 26.5614C278.666 28.497 279.734 30.182 281.13 31.616C282.526 33.0494 284.238 34.1606 286.264 34.95C288.29 35.7384 290.608 36.1322 293.222 36.1322C295.924 36.1322 298.152 35.7384 299.91 34.95C301.666 34.1606 303.084 33.2174 304.164 32.1172C305.244 31.0186 306.066 29.8714 306.63 28.6766C307.192 27.4818 307.632 26.4782 307.946 25.6654H311.054C309.612 30.3016 307.384 33.6832 304.368 35.8096C301.35 37.9354 297.522 39 292.884 39C289.912 39 287.244 38.5452 284.88 37.6376C282.516 36.73 280.5 35.4152 278.834 33.6952C277.168 31.9738 275.884 29.895 274.984 27.4574C274.082 25.02 273.632 22.2722 273.632 19.2133C273.632 17.3021 273.946 15.2228 274.578 12.976C275.208 10.7301 276.268 8.65128 277.754 6.73914C279.24 4.82792 281.22 3.226 283.698 1.93569C286.174 0.645386 289.258 0 292.952 0C295.968 0 298.648 0.501808 300.99 1.50543C303.33 2.50952 305.314 3.90692 306.934 5.69904C308.556 7.49162 309.794 9.63136 310.65 12.1159C311.504 14.6015 311.956 17.3021 312 20.217H276.74Z" fill="white"/>
</g>
</svg>
