<svg width="20" height="20" viewBox="0 0 20 20" fill="none" xmlns="http://www.w3.org/2000/svg">
<g clip-path="url(#clip0_4018_1454)">
<path fill-rule="evenodd" clip-rule="evenodd" d="M0 2.40167C0 1.07583 1.07583 0 2.40167 0C3.72667 0 4.8025 1.07583 4.80333 2.40167C4.80333 3.7275 3.7275 4.82583 2.40167 4.82583C1.07583 4.82583 0 3.7275 0 2.40167ZM19.995 20V19.9991H20V12.6641C20 9.07581 19.2275 6.31165 15.0325 6.31165C13.0158 6.31165 11.6625 7.41831 11.11 8.46748H11.0517V6.64665H7.07418V19.9991H11.2158V13.3875C11.2158 11.6466 11.5458 9.96331 13.7017 9.96331C15.8259 9.96331 15.8575 11.95 15.8575 13.4991V20H19.995ZM0.329997 6.64754H4.47666V20H0.329997V6.64754Z" fill="#232931"/>
</g>
<defs>
<clipPath id="clip0_4018_1454">
<rect width="20" height="20" fill="white"/>
</clipPath>
</defs>
</svg>
